<?xml version="1.0" encoding="UTF-8"?>
<svg version="1.1" xmlns="http://www.w3.org/2000/svg" width="48" height="48">
<path d="M0 0 C5.82485779 3.51996782 10.54466582 8.98962934 12.5625 15.5 C13.36764105 23.33608208 13.68710392 31.11922577 8.5625 37.5 C3.75801361 42.54521222 -0.59927055 46.10562995 -7.70703125 46.8359375 C-16.22326573 46.92983204 -22.11345494 46.6177288 -28.40234375 40.62890625 C-34.7841668 33.72505269 -35.91792252 28.29832071 -35.7421875 18.9453125 C-35.04689797 11.08319245 -31.38995981 6.95041296 -25.53515625 1.9453125 C-18.47077988 -2.92213491 -7.84396301 -3.47595223 0 0 Z " fill="#5D3B3A" transform="translate(35.4375,1.5)"/>
<path d="M0 0 C5.82485779 3.51996782 10.54466582 8.98962934 12.5625 15.5 C13.36556039 23.31583191 13.68158427 31.12696137 8.5625 37.5 C6.35691643 39.69141494 4.05888511 41.64874812 1.5625 43.5 C0.18687146 42.21034824 -1.14516393 40.87310707 -2.4375 39.5 C-2.4375 38.84 -2.4375 38.18 -2.4375 37.5 C-3.0975 37.5 -3.7575 37.5 -4.4375 37.5 C-3.97577753 34.45263169 -3.28338698 32.18382999 -1.921875 29.390625 C-0.03059483 25.04757976 0.04246403 20.99512454 0 16.3125 C0.01998047 15.51908203 0.03996094 14.72566406 0.06054688 13.90820312 C0.05732787 10.07436268 0.05366589 8.14237191 -2.328125 5.02734375 C-7.3862026 1.3649209 -12.31593674 0.7448165 -18.4375 1.5 C-21.72681514 3.22689045 -22.2515267 3.9420801 -23.4375 7.5 C-23.89555527 15.74499479 -23.41480224 25.14851103 -19.4375 32.5 C-18.87353338 36.16578305 -19.24586008 37.23050637 -21.4375 40.3125 C-22.0975 41.034375 -22.7575 41.75625 -23.4375 42.5 C-26.87797512 41.9340344 -28.34824477 40.91638065 -30.5625 38.25 C-31.06007813 37.66734375 -31.55765625 37.0846875 -32.0703125 36.484375 C-36.50368766 30.04964763 -36.10393804 23.03587635 -35.4375 15.5 C-33.75664417 8.84040667 -28.97371678 4.31452553 -23.4375 0.5 C-16.65568202 -2.91366677 -6.96443471 -3.08620048 0 0 Z " fill="#F8FAFB" transform="translate(35.4375,1.5)"/>
<path d="M0 0 C0.33 0.66 0.66 1.32 1 2 C1.99 2 2.98 2 4 2 C4.33 2.66 4.66 3.32 5 4 C5.33 2.68 5.66 1.36 6 0 C6.66 0 7.32 0 8 0 C8.33 0.66 8.66 1.32 9 2 C9.66 1.67 10.32 1.34 11 1 C11.66 1.33 12.32 1.66 13 2 C13.33 1.34 13.66 0.68 14 0 C16.475 1.485 16.475 1.485 19 3 C17.70022952 7.8991349 16.07626313 12.37559575 14 17 C14.66 17 15.32 17 16 17 C19 21.38461538 19 21.38461538 19 24 C14.91975282 25.9359963 11.56146694 26.29784538 7.0625 26.3125 C5.28552734 26.33763672 5.28552734 26.33763672 3.47265625 26.36328125 C-0.30089716 25.96852257 -2.73791176 24.88752892 -6 23 C-5.319375 22.175 -4.63875 21.35 -3.9375 20.5 C-2.06188664 17.73280987 -1.7820344 15.9968148 -2.1875 12.6875 C-2.60571764 9.21481927 -2.60571764 9.21481927 -4 8 C-4.04080783 6.00041636 -4.04254356 3.99954746 -4 2 C-2.68 1.34 -1.36 0.68 0 0 Z " fill="#542A31" transform="translate(17,22)"/>
<path d="M0 0 C0.33 0.66 0.66 1.32 1 2 C1.99 2 2.98 2 4 2 C4.33 2.66 4.66 3.32 5 4 C5.33 2.68 5.66 1.36 6 0 C6.66 0 7.32 0 8 0 C8.33 0.66 8.66 1.32 9 2 C9.66 1.67 10.32 1.34 11 1 C11.66 1.33 12.32 1.66 13 2 C13.33 1.34 13.66 0.68 14 0 C16.475 1.485 16.475 1.485 19 3 C17.92079885 7.31680459 16.98582629 10.65587455 14 14 C13.5875 14.5775 13.175 15.155 12.75 15.75 C9.97953097 17.72890645 7.29162749 17.18631854 4 17 C3.87625 16.071875 3.87625 16.071875 3.75 15.125 C3.18741541 12.81562433 3.18741541 12.81562433 0.9375 11.75 C0.298125 11.5025 -0.34125 11.255 -1 11 C-0.67 10.34 -0.34 9.68 0 9 C2.475 9.99 2.475 9.99 5 11 C5.45375 10.505 5.9075 10.01 6.375 9.5 C8 8 8 8 10 8 C10 7.34 10 6.68 10 6 C8.02 6 6.04 6 4 6 C4 6.66 4 7.32 4 8 C2.68 7.67 1.36 7.34 0 7 C0 6.34 0 5.68 0 5 C-0.99 5.33 -1.98 5.66 -3 6 C-3.33 4.68 -3.66 3.36 -4 2 C-2.68 1.34 -1.36 0.68 0 0 Z " fill="#C87367" transform="translate(17,22)"/>
<path d="M0 0 C5.52716205 0.46059684 10.9227323 1.72285633 16 4 C16.33 4.66 16.66 5.32 17 6 C16.19175781 6.09796875 15.38351563 6.1959375 14.55078125 6.296875 C9.97183949 6.93759544 5.93607798 7.54996251 1.75 9.5625 C-0.87362468 13.21683437 -0.41872972 16.64521094 0 21 C-0.66 21 -1.32 21 -2 21 C-4.03356407 14.89930778 -5.531202 9.128978 -2.5625 3.0625 C-1 1 -1 1 0 0 Z " fill="#180606" transform="translate(15,3)"/>
<path d="M0 0 C2.6875 2.25 2.6875 2.25 4 5 C3.67 6.32 3.34 7.64 3 9 C0.36 8.34 -2.28 7.68 -5 7 C-4.67 7.99 -4.34 8.98 -4 10 C-4.99 10 -5.98 10 -7 10 C-7 9.01 -7 8.02 -7 7 C-9.64 7.66 -12.28 8.32 -15 9 C-15.3125 6.75 -15.3125 6.75 -15 4 C-11.05438579 -0.86625752 -5.84412348 -1.15111523 0 0 Z " fill="#F9CEB8" transform="translate(30,10)"/>
<path d="M0 0 C3.75376152 1.25125384 4.24073289 2.5652404 6 6 C6 6.66 6 7.32 6 8 C1.50343896 10.24828052 -2.07872966 10.16682272 -7 10 C-6.42424336 6.64749299 -5.40693737 5.06181371 -2.9375 2.75 C-2.38964844 2.22921875 -1.84179688 1.7084375 -1.27734375 1.171875 C-0.64505859 0.59179688 -0.64505859 0.59179688 0 0 Z " fill="#C67258" transform="translate(30,38)"/>
<path d="M0 0 C0.99 1.485 0.99 1.485 2 3 C5.465 2.505 5.465 2.505 9 2 C9 2.99 9 3.98 9 5 C9.66 4.67 10.32 4.34 11 4 C11 3.34 11 2.68 11 2 C12.32 2.33 13.64 2.66 15 3 C13.25 6.875 13.25 6.875 11 8 C10.34 7.67 9.68 7.34 9 7 C8.67 8.65 8.34 10.3 8 12 C7.34 11.67 6.68 11.34 6 11 C6.33 10.34 6.66 9.68 7 9 C3.95086772 7.98888907 3.95086772 7.98888907 1 9 C0.67 6.03 0.34 3.06 0 0 Z " fill="#482E35" transform="translate(14,15)"/>
<path d="M0 0 C0.928125 0.33 1.85625 0.66 2.8125 1 C5.92029291 2.14967004 5.92029291 2.14967004 9 2 C9 3.32 9 4.64 9 6 C10.65 5.34 12.3 4.68 14 4 C13.34 5.32 12.68 6.64 12 8 C9.69 8 7.38 8 5 8 C4.87625 7.071875 4.87625 7.071875 4.75 6.125 C4.18741541 3.81562433 4.18741541 3.81562433 1.9375 2.75 C1.298125 2.5025 0.65875 2.255 0 2 C0 1.34 0 0.68 0 0 Z " fill="#A15F55" transform="translate(16,31)"/>
<path d="M0 0 C5.76752349 -0.34605141 10.0181105 -0.32125966 15 3 C16.03226901 4.30851002 17.03819897 5.63885469 18 7 C5.33029613 4.10933941 5.33029613 4.10933941 0 1 C0 0.67 0 0.34 0 0 Z " fill="#805349" transform="translate(17,2)"/>
<path d="M0 0 C2.24027294 2.88035092 4.16172132 5.84866512 6 9 C-0.52307692 8.38461538 -0.52307692 8.38461538 -2.9375 6.4375 C-3.4634375 5.7259375 -3.4634375 5.7259375 -4 5 C-2.68 3.35 -1.36 1.7 0 0 Z " fill="#4B6884" transform="translate(15,39)"/>
<path d="M0 0 C0.99 0.33 1.98 0.66 3 1 C2.34 3.31 1.68 5.62 1 8 C-0.98 8.33 -2.96 8.66 -5 9 C-5.3125 6.75 -5.3125 6.75 -5 4 C-2.6875 1.625 -2.6875 1.625 0 0 Z " fill="#D48579" transform="translate(20,10)"/>
<path d="M0 0 C-0.33 1.65 -0.66 3.3 -1 5 C-3.31 5.33 -5.62 5.66 -8 6 C-8 4.68 -8 3.36 -8 2 C-8.66 1.34 -9.32 0.68 -10 0 C-3.375 -1.125 -3.375 -1.125 0 0 Z " fill="#B26856" transform="translate(33,31)"/>
<path d="M0 0 C0.33 0.99 0.66 1.98 1 3 C-1.31 5.31 -3.62 7.62 -6 10 C-7.68762851 8.3545622 -9.3540349 6.68711423 -11 5 C-11 4.67 -11 4.34 -11 4 C-10.37351562 3.96261719 -9.74703125 3.92523438 -9.1015625 3.88671875 C-8.28429687 3.82097656 -7.46703125 3.75523438 -6.625 3.6875 C-5.81289063 3.62949219 -5.00078125 3.57148437 -4.1640625 3.51171875 C-1.62078662 3.17009472 -1.62078662 3.17009472 0 0 Z " fill="#411911" transform="translate(30,35)"/>
<path d="M0 0 C0 2.97 0 5.94 0 9 C-0.33 8.01 -0.66 7.02 -1 6 C-1.66 6 -2.32 6 -3 6 C-3.61875 5.0409375 -3.61875 5.0409375 -4.25 4.0625 C-6.59697894 1.29641768 -8.48008781 1.31288108 -12 1 C-12 0.67 -12 0.34 -12 0 C-4.5 -1.125 -4.5 -1.125 0 0 Z " fill="#56312A" transform="translate(36,9)"/>
<path d="M0 0 C0.33 0.66 0.66 1.32 1 2 C1.99 2 2.98 2 4 2 C4 3.98 4 5.96 4 8 C2.68 7.67 1.36 7.34 0 7 C0 6.34 0 5.68 0 5 C-0.99 5.33 -1.98 5.66 -3 6 C-3.33 4.68 -3.66 3.36 -4 2 C-2.68 1.34 -1.36 0.68 0 0 Z " fill="#AB686B" transform="translate(17,22)"/>
<path d="M0 0 C0.99 0.33 1.98 0.66 3 1 C3 3.97 3 6.94 3 10 C2.01 10 1.02 10 0 10 C0 9.01 0 8.02 0 7 C-0.66 7 -1.32 7 -2 7 C-2.125 4.625 -2.125 4.625 -2 2 C-1.34 1.34 -0.68 0.68 0 0 Z " fill="#F7AA96" transform="translate(23,10)"/>
<path d="M0 0 C1.98 0 3.96 0 6 0 C6 0.66 6 1.32 6 2 C5.01 2.495 5.01 2.495 4 3 C5.32 3.66 6.64 4.32 8 5 C5.36 5.33 2.72 5.66 0 6 C-0.66 4.68 -1.32 3.36 -2 2 C-1.34 2 -0.68 2 0 2 C0 1.34 0 0.68 0 0 Z " fill="#7F3834" transform="translate(21,28)"/>
<path d="M0 0 C0.66 0.33 1.32 0.66 2 1 C1.64950425 4.24208567 1.43778819 5.61527704 -1.0625 7.8125 C-1.701875 8.204375 -2.34125 8.59625 -3 9 C-3.33 8.01 -3.66 7.02 -4 6 C-2.84338843 3.79192337 -1.77322566 1.77322566 0 0 Z " fill="#21151E" transform="translate(15,3)"/>
<path d="M0 0 C1.32 0.66 2.64 1.32 4 2 C3.67 2.99 3.34 3.98 3 5 C1.35 5 -0.3 5 -2 5 C-2.33 3.68 -2.66 2.36 -3 1 C-2.01 1.33 -1.02 1.66 0 2 C0 1.34 0 0.68 0 0 Z " fill="#E9AA9B" transform="translate(30,22)"/>
<path d="M0 0 C0.99 0.33 1.98 0.66 3 1 C3.33 3.97 3.66 6.94 4 10 C3.34 10 2.68 10 2 10 C1.34 6.7 0.68 3.4 0 0 Z " fill="#141018" transform="translate(11,14)"/>
<path d="M0 0 C0.33 0 0.66 0 1 0 C1 2.31 1 4.62 1 7 C-0.65 7.33 -2.3 7.66 -4 8 C-2.66666667 5.33333333 -1.33333333 2.66666667 0 0 Z " fill="#E5DDD8" transform="translate(31,40)"/>
<path d="M0 0 C0.66 0 1.32 0 2 0 C2.66 1.98 3.32 3.96 4 6 C2.02 6 0.04 6 -2 6 C-1.34 4.02 -0.68 2.04 0 0 Z " fill="#F2A392" transform="translate(23,22)"/>
<path d="M0 0 C2.97 0 5.94 0 9 0 C9 0.99 9 1.98 9 3 C8.34 2.67 7.68 2.34 7 2 C6.67 2.66 6.34 3.32 6 4 C4.02 3.01 2.04 2.02 0 1 C0 0.67 0 0.34 0 0 Z " fill="#553537" transform="translate(17,2)"/>
<path d="M0 0 C-1.3125 2 -1.3125 2 -3 4 C-3.99 4 -4.98 4 -6 4 C-6 2.68 -6 1.36 -6 0 C-2.25 -1.125 -2.25 -1.125 0 0 Z " fill="#E59984" transform="translate(31,33)"/>
<path d="M0 0 C1.32 0.33 2.64 0.66 4 1 C2.25 4.875 2.25 4.875 0 6 C-0.66 5.67 -1.32 5.34 -2 5 C-2 4.34 -2 3.68 -2 3 C-1.34 2.67 -0.68 2.34 0 2 C0 1.34 0 0.68 0 0 Z " fill="#52252A" transform="translate(25,17)"/>
<path d="M0 0 C1.66666667 0 3.33333333 0 5 0 C4.67 1.65 4.34 3.3 4 5 C2.68 4.67 1.36 4.34 0 4 C0 2.68 0 1.36 0 0 Z " fill="#0D0105" transform="translate(11,10)"/>
<path d="M0 0 C1.37562854 1.28965176 2.70766393 2.62689293 4 4 C4 4.66 4 5.32 4 6 C2.68 6.33 1.36 6.66 0 7 C0 4.69 0 2.38 0 0 Z " fill="#4F454C" transform="translate(32,40)"/>
<path d="M0 0 C1.98 0 3.96 0 6 0 C5.67 0.99 5.34 1.98 5 3 C2.69 3 0.38 3 -2 3 C-1.34 2.67 -0.68 2.34 0 2 C0 1.34 0 0.68 0 0 Z " fill="#F4A48B" transform="translate(27,28)"/>
<path d="M0 0 C0.99 0 1.98 0 3 0 C3.33 1.32 3.66 2.64 4 4 C1.69 4.66 -0.62 5.32 -3 6 C-3 5.34 -3 4.68 -3 4 C-2.34 4 -1.68 4 -1 4 C-0.67 2.68 -0.34 1.36 0 0 Z " fill="#3C1511" transform="translate(20,6)"/>
</svg>
